<svg xmlns="http://www.w3.org/2000/svg" viewBox="0 0 399.59 199.15"><defs><style>.cls-1{fill:#040000;}</style></defs><g id="레이어_2" data-name="레이어 2"><g id="레이어_1-2" data-name="레이어 1"><path class="cls-1" d="M7.17,38.46s-1.6-2.73-4.28-6.71S-3.81,13.13,8,4s25.15-.87,29,4.9,8,12.4,8,12.4L84,80s5.89,8.67,7.52,11.17,5.66,4.15,8.79,2.57,4.13-3.44,4.13-7-.06-8.83-.06-8.83V20.58c0-7.85,5.66-16.63,13-19.26s18.3-1.45,23.86,6.62,11.2,16.88,11.2,16.88l35,52.8s6.33,10,8.94,13.35,5.83,3.9,8.81,2.79,4.36-2.83,4.36-6.47V37.64s.26-11.47.26-17.2a21,21,0,0,1,9.63-17.33c6.7-4.18,20.54-5,27.32,5.32s9.13,14.08,9.13,14.08l38.54,57.94s3.44,5.33,4.53,6.9a3.88,3.88,0,0,0,4.41,1.54,3.49,3.49,0,0,0,2.43-3.34V20.8c0-6,4.5-15.52,11.65-18.62s19.05-3.59,26,6.76S355.89,28,355.89,28l27.77,41.77s9.1,13.89,12.06,18.28,3.95,9,3.87,11.36a20.47,20.47,0,0,1-3.74,12.19c-3.82,5.86-7.52,11.23-7.52,11.23l-37,55.5s-4.13,6.4-7.09,10.73-12.91,13.48-25,8.76-13.39-16.17-13.35-20.48,0-14.63,0-14.63v-46c0-2.35,0-4.95-2.59-5.93s-4.54,1.29-5.13,2.19-1.92,2.92-1.92,2.92L255.12,178s-5.53,8.87-7.39,11.15-5.86,7.95-12.79,9.24-16.05.39-22.07-8.54-14.07-21.08-14.07-21.08l-36-54.45s-2.95-4.42-4.72-7a7.09,7.09,0,0,0-13,4.35c0,1.73,0,9.1,0,9.1v57.88c0,7-3.53,14.52-10.58,17.93s-19.11,5.74-28.52-9.33-11.72-17.68-11.72-17.68Z"/></g></g></svg>