<svg xmlns="http://www.w3.org/2000/svg" viewBox="0 0 54.14 57.04"><defs><style>.cls-1{fill:#040000;}</style></defs><g id="레이어_2" data-name="레이어 2"><g id="레이어_1-2" data-name="레이어 1"><rect class="cls-1" x="5.45" y="0.01" width="13.25" height="4.91" transform="translate(0 0.01) rotate(-0.07)"/><path class="cls-1" d="M37.46,12.34a4.77,4.77,0,1,1,4.77,4.76A4.77,4.77,0,0,1,37.46,12.34Zm4.78,11.9a11.91,11.91,0,1,0-11.92-11.9A11.92,11.92,0,0,0,42.24,24.24Z"/><path class="cls-1" d="M23.27,5.5.89,5.53v6.4h1.7a10.36,10.36,0,0,0-.85,4.17,10.57,10.57,0,0,0,21.14,0A10.38,10.38,0,0,0,22,11.91h1.27Zm-11,14a3.43,3.43,0,1,1,3.42-3.42A3.43,3.43,0,0,1,12.31,19.51Z"/><polygon class="cls-1" points="24.81 54.09 12.33 30.98 0 54.12 7.4 57.04 12.4 46.06 17.43 57.03 24.81 54.09"/><polygon class="cls-1" points="39.98 39.68 52.09 39.67 52.09 31.93 31.93 31.95 31.96 56.07 52.12 56.05 52.1 48.2 39.99 48.22 39.98 39.68"/></g></g></svg>