<svg xmlns="http://www.w3.org/2000/svg" viewBox="0 0 702.6 85.79"><defs><style>.cls-1{fill:#21a9dc;}</style></defs><g id="레이어_2" data-name="레이어 2"><g id="Gold"><path class="cls-1" d="M30.5,1.48c15.19,0,29.36,4,29.36,20.79,0,7.77-3.77,14.85-9.14,17.94,7.42,3.31,12.45,9,12.45,19.65,0,17.59-13.48,24.44-30.27,24.44H0V1.48Zm1.6,35.07c8.91,0,14.62-3.77,14.62-12.68,0-7.88-5.94-11.65-14.62-11.65H13V36.55Zm1.14,37c11.08,0,16.56-4.91,16.56-13.7,0-9.14-5.48-13.26-17.24-13.26H13v27Z"/><path class="cls-1" d="M100.33,34.73c-9.14,0-13.94,4.45-13.94,17.36V84.3H74.51V22.85H86.16V33.7a18.35,18.35,0,0,1,17-11.08c1,0,2.29,0,3.32.11V35.07A58.65,58.65,0,0,0,100.33,34.73Z"/><path class="cls-1" d="M167.76,66.25c-2.86,10.17-12,19.54-27.65,19.54-19.87,0-30.61-14.51-30.61-32.33,0-19.08,12.79-31.76,30.27-31.76,19,0,30,15.54,28.79,35.53H121.72c1.15,11.31,8.34,18.39,17.94,18.39,8.56,0,13.59-3.54,16.1-9.37ZM156.22,47.86c-.34-9.14-6.74-16.45-16.56-16.45-9.26,0-16.11,4.8-17.71,16.45Z"/><path class="cls-1" d="M216.13,46.26V45c0-10.86-5.71-14.51-13.25-14.51-8.22,0-12.91,4.23-13.36,11.76h-12c1-13,11.77-20.9,25.82-20.9,15.88,0,25,7.65,24.79,26,0,1.49-.23,12.11-.23,14.74,0,9.14.57,16.68,1.71,22.16H218.19a52.87,52.87,0,0,1-1-8.11c-3.66,6.17-10.62,9.6-20.56,9.6-12.45,0-21.93-6.86-21.93-18.05C174.67,52.77,192.26,48.77,216.13,46.26ZM187.58,67.51c0,5.6,4.45,9.14,11.65,9.14,9.82,0,17.47-4.92,17.47-17.14V55.06C197.63,56.89,187.58,59.51,187.58,67.51Z"/><path class="cls-1" d="M254.44,7.08V22.85h12.11v9H254.44V66.94c0,6.28,1,7.88,7,7.88h5V84.3h-8.68c-12.45,0-15.2-3.08-15.2-15.76V31.87H233.2v-9h9.36V7.08Z"/><path class="cls-1" d="M306.1,21.7c14.85,0,20.56,9.6,20.56,23.88V84.3H314.78V48.77c0-8.9-1.49-17.13-12.68-17.13-10.28,0-15.31,7.43-15.31,19.65v33H274.91V1.48h11.88V31.76C290.33,25.7,296.5,21.7,306.1,21.7Z"/><path class="cls-1" d="M402.51,85.79c-24,0-37.93-17.6-37.93-43.07,0-25.93,15-42.72,38.73-42.72,17.7,0,31.18,10.28,34.61,28.44H425.35c-2.51-10.73-10.51-17.59-22.62-17.59C388.8,10.85,378,21.93,378,42.72c0,20.45,10.51,32.21,24.9,32.21,12.22,0,20.33-6.62,22.84-17.59h12.57C434.72,75.73,420.9,85.79,402.51,85.79Z"/><path class="cls-1" d="M474.06,34.73c-9.14,0-13.94,4.45-13.94,17.36V84.3H448.24V22.85H459.9V33.7a18.33,18.33,0,0,1,17-11.08c1,0,2.28,0,3.31.11V35.07A58.65,58.65,0,0,0,474.06,34.73Z"/><path class="cls-1" d="M541.49,66.25c-2.86,10.17-12,19.54-27.64,19.54-19.88,0-30.62-14.51-30.62-32.33,0-19.08,12.8-31.76,30.27-31.76,19,0,30,15.54,28.79,35.53H495.46c1.14,11.31,8.33,18.39,17.93,18.39,8.57,0,13.59-3.54,16.1-9.37ZM530,47.86c-.34-9.14-6.74-16.45-16.56-16.45-9.25,0-16.11,4.8-17.71,16.45Z"/><path class="cls-1" d="M589.86,46.26V45c0-10.86-5.71-14.51-13.25-14.51-8.22,0-12.9,4.23-13.36,11.76h-12c1-13,11.77-20.9,25.82-20.9,15.88,0,25,7.65,24.79,26,0,1.49-.23,12.11-.23,14.74,0,9.14.57,16.68,1.71,22.16H591.92a52.87,52.87,0,0,1-1-8.11c-3.65,6.17-10.62,9.6-20.56,9.6-12.45,0-21.93-6.86-21.93-18.05C548.4,52.77,566,48.77,589.86,46.26ZM561.31,67.51c0,5.6,4.45,9.14,11.65,9.14,9.82,0,17.47-4.92,17.47-17.14V55.06C571.36,56.89,561.31,59.51,561.31,67.51Z"/><path class="cls-1" d="M628.18,7.08V22.85h12.1v9h-12.1V66.94c0,6.28,1,7.88,7,7.88h5V84.3h-8.68c-12.45,0-15.19-3.08-15.19-15.76V31.87h-9.37v-9h9.37V7.08Z"/><path class="cls-1" d="M701.7,66.25c-2.85,10.17-12,19.54-27.64,19.54-19.88,0-30.61-14.51-30.61-32.33,0-19.08,12.79-31.76,30.27-31.76,19,0,30,15.54,28.78,35.53H655.67c1.14,11.31,8.34,18.39,17.93,18.39,8.57,0,13.6-3.54,16.11-9.37ZM690.17,47.86c-.35-9.14-6.74-16.45-16.57-16.45-9.25,0-16.1,4.8-17.7,16.45Z"/></g></g></svg>